Coordinates
version=1
nRows=24
nColumns=22
inDegrees=yes

Units are S.I. units (second, meters, Newtons, ...)
If the header above contains a line with 'inDegrees', this indicates whether rotational values are in degrees (yes) or radians (no).

endheader
time	pelvis_tilt	pelvis_list	pelvis_rotation	pelvis_tx	pelvis_ty	pelvis_tz	hip_flexion_r	hip_adduction_r	hip_rotation_r	knee_angle_r	ankle_angle_r	subtalar_angle_r	hip_flexion_l	hip_adduction_l	hip_rotation_l	knee_angle_l	ankle_angle_l	subtalar_angle_l	lumbar_extension	lumbar_bending	lumbar_rotation
      0.01000000	     -2.94088702	     -4.81128321	     -2.49928421	     -1.07701852	      0.92558964	      0.57783412	     -4.35430071	      8.74060319	     -6.75226625	     -8.79965407	     16.34212365	     -2.98681674	     32.01139938	     -5.17331764	      2.82467341	    -57.36621703	      7.43009104	     -2.23094438	    -13.93386836	      2.58242875	      3.47122711
      0.02000000	     -2.98455761	     -4.59970889	     -2.60266772	     -1.07282644	      0.92518240	      0.57809655	     -4.51153164	      8.49672885	     -6.71734294	     -8.94531412	     16.55579805	     -2.99254371	     32.54436339	     -4.88750214	      2.27388994	    -56.22047252	      7.44883729	     -2.13179549	    -13.90698421	      2.35999503	      3.66422619
      0.03000000	     -3.03925289	     -4.39439436	     -2.65011220	     -1.06851600	      0.92467383	      0.57827542	     -4.66321069	      8.26754229	     -6.66769638	     -9.09213629	     16.78838866	     -2.97651832	     33.05640518	     -4.60690528	      1.76008207	    -54.89916931	      7.51551668	     -2.05670513	    -13.85918804	      2.14940695	      3.77194268
      0.04000000	     -3.07196221	     -4.19965206	     -2.68036913	     -1.06406495	      0.92410511	      0.57839608	     -4.83715223	      8.04539233	     -6.66670861	     -9.25849117	     17.11217497	     -2.96459057	     33.51538144	     -4.37606483	      1.19340475	    -53.43530704	      7.54411021	     -2.02780778	    -13.83009736	      1.95402211	      3.88718508
      0.05000000	     -3.10190797	     -4.01897568	     -2.67499126	     -1.05948943	      0.92346423	      0.57846058	     -5.01783959	      7.84263300	     -6.65972382	     -9.43464791	     17.40789393	     -2.96456705	     33.93361331	     -4.15942043	      0.65164480	    -51.82584768	      7.58678305	     -2.07075202	    -13.79928743	      1.77226605	      3.96026616
      0.06000000	     -3.12923767	     -3.85308135	     -2.65313624	     -1.05479938	      0.92275034	      0.57845350	     -5.19569033	      7.65305643	     -6.65222020	     -9.64088471	     17.68859789	     -2.96813695	     34.31075758	     -3.95572950	      0.12832890	    -50.08837901	      7.61832493	     -2.15270121	    -13.76867617	      1.61172446	      4.00880380
      0.07000000	     -3.14948317	     -3.69863697	     -2.61560218	     -1.04995064	      0.92196249	      0.57839287	     -5.39502096	      7.47454672	     -6.66048582	     -9.84452449	     17.97653317	     -2.96938006	     34.64343078	     -3.76499092	     -0.39166777	    -48.24804850	      7.61685205	     -2.26347002	    -13.73717491	      1.46075240	      4.04879421
      0.08000000	     -3.12846485	     -3.55155929	     -2.56595823	     -1.04493764	      0.92116588	      0.57825412	     -5.66227932	      7.29821262	     -6.66358868	    -10.02805566	     18.27788069	     -2.95839264	     34.88221401	     -3.55974475	     -0.86807660	    -46.30035529	      7.58369211	     -2.47038483	    -13.74682014	      1.31674216	      4.11271973
      0.09000000	     -3.15619804	     -3.42431848	     -2.52247355	     -1.03983220	      0.92019645	      0.57807564	     -5.85640492	      7.13795758	     -6.66122107	    -10.26799596	     18.57953780	     -2.93312462	     35.14943911	     -3.36719557	     -1.30984996	    -44.29773940	      7.47017845	     -2.53245266	    -13.69747709	      1.19501003	      4.18027114
      0.10000000	     -3.17228929	     -3.30182178	     -2.47407873	     -1.03456248	      0.91916184	      0.57783397	     -6.08399735	      6.97767000	     -6.64943992	    -10.49121269	     18.88563430	     -2.88924938	     35.36429055	     -3.15851393	     -1.70495446	    -42.23501412	      7.30974360	     -2.56432155	    -13.65347377	      1.07508230	      4.24812623
      0.11000000	     -3.18643389	     -3.18761299	     -2.42486805	     -1.02913895	      0.91804418	      0.57753502	     -6.33113643	      6.82125236	     -6.62901570	    -10.70383441	     19.20042792	     -2.81718503	     35.54155597	     -2.93588259	     -2.03603996	    -40.13274685	      7.10839318	     -2.52910683	    -13.60552937	      0.96306863	      4.31616944
      0.12000000	     -3.22773324	     -3.08513445	     -2.37895927	     -1.02357817	      0.91679379	      0.57720414	     -6.55806820	      6.67279730	     -6.61425080	    -10.91959197	     19.52644514	     -2.73551149	     35.71762401	     -2.70640616	     -2.28785174	    -38.00953490	      6.86408950	     -2.42722764	    -13.51935157	      0.85549215	      4.40902196
      0.13000000	     -3.29976198	     -2.98798432	     -2.33635939	     -1.01786012	      0.91541152	      0.57684603	     -6.77655388	      6.52970758	     -6.57613691	    -11.11231230	     19.84446847	     -2.64579556	     35.89472978	     -2.46911663	     -2.46449561	    -35.88121151	      6.62337736	     -2.27950499	    -13.38852423	      0.74919228	      4.47143795
      0.14000000	     -3.32969438	     -2.91441542	     -2.30890185	     -1.01200871	      0.91402206	      0.57646201	     -7.04714068	      6.39902140	     -6.56492832	    -11.31506769	     20.19581726	     -2.47951129	     35.99108439	     -2.25039169	     -2.55635053	    -33.75994432	      6.38338760	     -1.94262575	    -13.31253563	      0.66072424	      4.58667094
      0.15000000	     -3.42094865	     -2.85368830	     -2.29284729	     -1.00598065	      0.91246211	      0.57610317	     -7.28700740	      6.28527295	     -6.53555424	    -11.47702993	     20.51624479	     -2.33311100	     36.13130539	     -2.05939999	     -2.60918937	    -31.68757179	      6.17145269	     -1.64849563	    -13.15085653	      0.57197157	      4.70109401
      0.16000000	     -3.53847632	     -2.81316336	     -2.30224174	     -0.99980164	      0.91079828	      0.57577720	     -7.50881659	      6.18816570	     -6.49717572	    -11.64550842	     20.83431194	     -2.22344398	     36.28167316	     -1.91991548	     -2.66594607	    -29.69218540	      5.98373684	     -1.47112718	    -12.95479496	      0.49213720	      4.83365576
      0.17000000	     -3.66229946	     -2.79757675	     -2.32810994	     -0.99342617	      0.90907574	      0.57550792	     -7.76227230	      6.12045055	     -6.40623252	    -11.77441899	     21.10004624	     -2.10002946	     36.42385807	     -1.84503454	     -2.76462291	    -27.80839059	      5.85074782	     -1.30525589	    -12.74405596	      0.42292544	      4.93611492
      0.18000000	     -3.76956062	     -2.81561712	     -2.37981862	     -0.98682500	      0.90733285	      0.57530763	     -8.07346393	      6.08396487	     -6.31728797	    -11.86204742	     21.33187564	     -1.94229894	     36.54289960	     -1.85510715	     -2.95727209	    -26.08368881	      5.76547274	     -1.13710773	    -12.54063808	      0.36770177	      5.10084147
      0.19000000	     -3.88492053	     -2.86846334	     -2.45888319	     -0.98002883	      0.90553846	      0.57516023	     -8.40663618	      6.08214481	     -6.17629353	    -11.92222874	     21.49970571	     -1.79357569	     36.67779728	     -1.95348450	     -3.29380954	    -24.56122806	      5.75157114	     -1.04364284	    -12.32526689	      0.34015263	      5.23965083
      0.20000000	     -3.98053403	     -2.94652950	     -2.56231771	     -0.97292881	      0.90374032	      0.57509241	     -8.81459212	      6.10377615	     -6.02887050	    -11.92349944	     21.61975848	     -1.61545426	     36.80145686	     -2.13332445	     -3.81602917	    -23.29051180	      5.81871524	     -0.99252349	    -12.10591498	      0.31422813	      5.42936140
      0.21000000	     -4.07622217	     -3.04838829	     -2.69006131	     -0.96558789	      0.90192591	      0.57506205	     -9.24530054	      6.14479104	     -5.83281279	    -11.91654555	     21.67328812	     -1.45143329	     36.94150968	     -2.38324827	     -4.51324652	    -22.30247948	      5.96322205	     -0.99624139	    -11.87417669	      0.30436229	      5.59230798
      0.22000000	     -4.15457130	     -3.16205524	     -2.84269623	     -0.95798006	      0.90014141	      0.57508715	     -9.72894551	      6.19071534	     -5.62244260	    -11.87689966	     21.67447084	     -1.27219584	     37.09075436	     -2.69511204	     -5.40806849	    -21.64909334	      6.15273012	     -1.04379822	    -11.64822089	      0.28600446	      5.76999222
      0.23000000	     -4.21712033	     -3.26980326	     -3.01607558	     -0.95008251	      0.89841280	      0.57512194	    -10.26602637	      6.21924786	     -5.38821835	    -11.79982779	     21.63053405	     -1.05203826	     37.23515748	     -3.03506790	     -6.42750224	    -21.32441700	      6.34980668	     -1.16391726	    -11.41832140	      0.24671490	      5.98149062
      0.24000000	     -4.28412749	     -3.37576908	     -3.20556435	     -0.94194002	      0.89671502	      0.57516126	    -10.79514544	      6.23413555	     -5.14078028	    -11.75593489	     21.51945970	     -0.85914981	     37.41058975	     -3.40824201	     -7.55355618	    -21.35700371	      6.54102932	     -1.29841282	    -11.16922063	      0.19880444	      6.14823870
